<svg xmlns="http://www.w3.org/2000/svg" xmlns:svgjs="http://svgjs.com/svgjs" xmlns:xlink="http://www.w3.org/1999/xlink" width="288" height="288"><svg xmlns="http://www.w3.org/2000/svg" width="288" height="288" viewBox="0 0 32 32"><path fill="#fff" d="M17.5 7.5h-8a.5.5 0 0 0 0 1h8a.5.5 0 0 0 0-1zm10-2c.13 0 .26-.05.35-.15.05-.04.09-.1.11-.16.03-.06.04-.121.04-.19 0-.13-.05-.26-.15-.351a.496.496 0 0 0-.809.16A.401.401 0 0 0 27 5c0 .069.01.13.04.189.02.061.06.12.109.16a.47.47 0 0 0 .351.151zm-2 5a.5.5 0 0 0 .5-.5c0-.275.225-.5.5-.5h1c.827 0 1.5-.673 1.5-1.5s-.673-1.5-1.5-1.5h-3c-.275 0-.5-.225-.5-.5s.225-.5.5-.5h1a.5.5 0 0 0 0-1h-1c-.827 0-1.5.673-1.5 1.5s.673 1.5 1.5 1.5h3c.275 0 .5.225.5.5s-.225.5-.5.5h-3c-.827 0-1.5.673-1.5 1.5a.5.5 0 0 0 1 0c0-.275.225-.5.5-.5h.592A1.483 1.483 0 0 0 25 10a.5.5 0 0 0 .5.5z" class="color000 svgShape"/><path fill="#fff" d="M31.5 17.5h-2.592c.056-.157.092-.324.092-.5v-.5c1.103 0 2-.897 2-2s-.897-2-2-2V12a.5.5 0 0 0-.5-.5h-5a.5.5 0 0 0-.5.5v5c0 .176.036.343.092.5h-1.184c.056-.157.092-.324.092-.5v-2a.5.5 0 0 0-.5-.5H20V4a.5.5 0 0 0-.5-.5h-15A.5.5 0 0 0 4 4v10.5H2.5a.5.5 0 0 0-.5.5v2c0 .176.036.343.092.5H.5a.5.5 0 0 0-.5.5v1c0 1.208.86 2.217 2 2.449V28a.5.5 0 0 0 1 0v-6.5h1V28a.5.5 0 0 0 1 0v-6.5h22V28a.5.5 0 0 0 1 0v-6.5h1V28a.5.5 0 0 0 1 0v-6.551c1.14-.232 2-1.242 2-2.449v-1a.5.5 0 0 0-.5-.5zm-1.5-3a1 1 0 0 1-1 1v-2a1 1 0 0 1 1 1zM24 17v-4.5h4V17c0 .275-.225.5-.5.5h-3a.501.501 0 0 1-.5-.5zM5 4.5h14v10H5v-10zM3 17v-1.5h7.254l.507 1h2.478l.507-1H21V17c0 .275-.225.5-.5.5h-17A.501.501 0 0 1 3 17zm28 2c0 .827-.673 1.5-1.5 1.5h-27c-.827 0-1.5-.673-1.5-1.5v-.5h30v.5z" class="color000 svgShape"/><path fill="#fff" d="M6.854 5.646a.5.5 0 0 0-.707.707L6.793 7l-.647.646a.5.5 0 0 0 .708.708l1-1a.5.5 0 0 0 0-.707l-1-1.001z" class="color000 svgShape"/></svg></svg>