<svg xmlns="http://www.w3.org/2000/svg" xmlns:svgjs="http://svgjs.com/svgjs" xmlns:xlink="http://www.w3.org/1999/xlink" width="288" height="288"><svg xmlns="http://www.w3.org/2000/svg" width="288" height="288" viewBox="0 0 64 64"><g fill="#fff" class="color000 svgShape" data-name="Layer 15"><path d="M28 13H6a1 1 0 0 0-1 1v14a1 1 0 0 0 1 1h22a1 1 0 0 0 1-1V14a1 1 0 0 0-1-1Zm-1 14H7V15h20Z" class="color000 svgShape"/><path d="M22 21h2v4h-2zM18 21h2v4h-2zM27 43a9.94 9.94 0 0 0-2.26-6.32l2-2-1.42-1.42-2 2a10 10 0 0 0-12.64 0l-2-2-1.39 1.45 2 2a10 10 0 0 0 0 12.64l-2 2 1.42 1.42 2-2a10 10 0 0 0 12.64 0l2 2 1.42-1.42-2-2A9.94 9.94 0 0 0 27 43Zm-9-7.93V44h-2v-8.93a7.18 7.18 0 0 1 2 0ZM9 43a8 8 0 0 1 5-7.41V45a1 1 0 0 0 1 1h4a1 1 0 0 0 1-1v-9.41A8 8 0 1 1 9 43ZM27 57h2v2h-2zM5 57h2v2H5z" class="color000 svgShape"/><path d="M55 24a3 3 0 0 0-2-2.82V17h-2v4.18A3 3 0 0 0 49 24v3h-2v2h2v23a1 1 0 0 0 1 1h1v2a2 2 0 0 1-2 2h-8.56a3.91 3.91 0 0 0 .56-2v-2h1a1 1 0 0 0 1-1V29h2v-2h-2v-3a3 3 0 0 0-2-2.82V17h-2v4.18A3 3 0 0 0 37 24v3h-2v2h2v23a1 1 0 0 0 1 1h1v2a2 2 0 0 1-2 2h-4V12a3 3 0 0 0-3-3H4a3 3 0 0 0-3 3v48a3 3 0 0 0 3 3h26a3 3 0 0 0 3-3v-1h16a4 4 0 0 0 4-4v-2h1a1 1 0 0 0 1-1V29h2v-2h-2Zm-16 0a1 1 0 0 1 2 0v3h-2Zm2 5v22h-2V29ZM31 60a1 1 0 0 1-1 1H4a1 1 0 0 1-1-1V12a1 1 0 0 1 1-1h26a1 1 0 0 1 1 1Zm20-36a1 1 0 0 1 2 0v3h-2Zm2 27h-2V29h2Z" class="color000 svgShape"/><path d="M36 8h3.59l-3.3 3.29 1.42 1.42 5-5a1 1 0 0 0 .21-1.09A1 1 0 0 0 42 6h-3.59l3.3-3.29-1.42-1.42-5 5a1 1 0 0 0-.21 1.09A1 1 0 0 0 36 8zm10 4h3.59l-3.3 3.29 1.42 1.42 5-5a1 1 0 0 0 .21-1.09A1 1 0 0 0 52 10h-3.59l3.3-3.29-1.42-1.42-5 5a1 1 0 0 0-.21 1.09A1 1 0 0 0 46 12zm16.92-5.38A1 1 0 0 0 62 6h-3.59l3.3-3.29-1.42-1.42-5 5a1 1 0 0 0-.21 1.09A1 1 0 0 0 56 8h3.59l-3.3 3.29 1.42 1.42 5-5a1 1 0 0 0 .21-1.09z" class="color000 svgShape"/></g></svg></svg>