<svg xmlns="http://www.w3.org/2000/svg" xmlns:svgjs="http://svgjs.com/svgjs" xmlns:xlink="http://www.w3.org/1999/xlink" width="288" height="288"><svg xmlns="http://www.w3.org/2000/svg" width="288" height="288" data-name="Layer 3" viewBox="0 0 64 64"><path fill="#fff" d="M12,46.58l6.5-3.712a1.011,1.011,0,0,0,.441-.517L21.693,35h2.015l-1.352,4.344a9.913,9.913,0,0,0,.5,6.656H22a1,1,0,0,0-1,1v8.63l-5.759,6.719,1.518,1.3,6-7A1,1,0,0,0,23,56V48h1.027a9.946,9.946,0,0,0,15.946,0H41v8a1,1,0,0,0,.241.651l6,7,1.518-1.3L43,55.63V47a1,1,0,0,0-1-1h-.853A9.932,9.932,0,0,0,42,42a10.05,10.05,0,0,0-.365-2.688L40.292,35h2.015l2.756,7.351a1.011,1.011,0,0,0,.441.517L52,46.58V50h2V46a1,1,0,0,0-.5-.868L46.81,41.311l-2.873-7.662A1,1,0,0,0,43,33H39.67l-.715-2.3A1,1,0,0,0,38,30h-.154A7.561,7.561,0,0,0,39,26h3a1,1,0,0,0,.992-.876L43.258,23H47V21H43.508l.125-1H46V18H43.883l.088-.706L47.9,9.447a1.156,1.156,0,0,0,.067-.172L48.04,9H50V7H48.612L48.9,6H51V4H49.469l.493-1.725A1,1,0,0,0,49,1H46V3h1.674l-1.61,5.636-3.959,7.917a.989.989,0,0,0-.1.323L41.117,24H38.7a7.005,7.005,0,0,0-2.833-3.814L38.447,18.9l-.894-1.79L35,18.382v-4.3l.986-5.918a1,1,0,0,0-1.693-.872L32,9.586,29.707,7.293a1,1,0,0,0-1.693.872L29,14.083v4.3l-2.553-1.277-.894,1.79,2.583,1.291A7.005,7.005,0,0,0,25.3,24h-2.42l-.891-7.124a.989.989,0,0,0-.1-.323L17.936,8.636,16.326,3H18V1H15a1,1,0,0,0-.962,1.275L14.531,4H13V6h2.1l.286,1H14V9h1.96l.078.275a1.156,1.156,0,0,0,.067.172l3.924,7.847.089.706H18v2h2.367l.125,1H17v2h3.742l.266,2.124A1,1,0,0,0,22,26h3a7.561,7.561,0,0,0,1.154,4H26a1,1,0,0,0-.955.7L24.331,33H21a1,1,0,0,0-.937.649L17.19,41.311,10.5,45.132A1,1,0,0,0,10,46v4h2Zm27.716-6.7A8.009,8.009,0,0,1,33,49.937V32h4.263ZM27.941,29.109A5.582,5.582,0,0,1,27,26a5.006,5.006,0,0,1,2-4v2h2V14a1.021,1.021,0,0,0-.014-.165L30.5,10.914l.794.793a1,1,0,0,0,1.414,0l.794-.793-.487,2.921A1.021,1.021,0,0,0,33,14V24h2V22a5.01,5.01,0,0,1,2,4,5.582,5.582,0,0,1-.941,3.109L35.465,30h-6.93ZM26.737,32H31V49.937a8.012,8.012,0,0,1-6.725-10.029Z" class="color000 svgShape"/></svg></svg>